# AST/ASF file generated using VICON BodyLanguage
# -----------------------------------------------
:version 1.10
:name VICON
:units
  mass 1.0
  length 0.45
  angle deg
:documentation
   .ast/.asf automatically generated from VICON data using
   VICON BodyBuilder and BodyLanguage model FoxedUp or BRILLIANT.MOD
:root
   order TX TY TZ RX RY RZ
   axis XYZ
   position 0 0 0  
   orientation 0 0 0 
:bonedata
  begin
     id 1 
     name lhipjoint
     direction 0.64773 -0.699417 0.302095 
     length 2.48597 
     axis 0 0 0  XYZ
  end
  begin
     id 2 
     name lfemur
     direction 0.34202 -0.939693 0  
     length 6.71947  
     axis 0 0 20  XYZ
    dof rx ry rz
    limits (-160.0 20.0)
           (-70.0 70.0)
           (-60.0 70.0)
  end
  begin
     id 3 
     name ltibia
     direction 0.34202 -0.939693 0   
     length 8.08777   
     axis 0 0 20   XYZ
    dof rx
    limits (-10.0 170.0)
  end
  begin
     id 4 
     name lfoot
     direction 0.0808503 -0.222134 0.971658   
     length 2.08264   
     axis -90 7.62852e-016 20   XYZ
    dof rx rz
    limits (-45.0 90.0)
           (-70.0 20.0)
  end
  begin
     id 5 
     name ltoes
     direction 1.53502e-011 -4.22007e-011 1   
     length 1.04662   
     axis -90 7.62852e-016 20   XYZ
    dof rx
    limits (-90.0 20.0)
  end
  begin
     id 6 
     name rhipjoint
     direction -0.610924 -0.726792 0.313919   
     length 2.39233  
     axis 0 0 0  XYZ 
  end
  begin
     id 7 
     name rfemur
     direction -0.34202 -0.939693 0   
     length 6.96955   
     axis 0 0 -20   XYZ
    dof rx ry rz
    limits (-160.0 20.0)
           (-70.0 70.0)
           (-70.0 60.0)
  end
  begin
     id 8 
     name rtibia
     direction -0.34202 -0.939693 0   
     length 8.19584   
     axis 0 0 -20   XYZ
    dof rx
    limits (-10.0 170.0)
 end
 begin
     id 9 
     name rfoot
     direction -0.077777 -0.213691 0.9738   
     length 2.07539  
     axis -90 -7.62852e-016 -20   XYZ
    dof rx rz
    limits (-45.0 90.0)
           (-20.0 70.0)
  end
  begin
     id 10 
     name rtoes
     direction -1.53558e-011 -4.22006e-011 1   
     length 1.04381   
     axis -90 -7.62852e-016 -20   XYZ
    dof rx
    limits (-90.0 20.0)
  end
  begin
     id 11 
     name lowerback
     direction -0.00971646 0.996074 0.0879841   
     length 1.67643   
     axis 0 0 0   XYZ
    dof rx ry rz
    limits (-20.0 45.0)
           (-30.0 30.0)
           (-30.0 30.0)
  end
  begin
     id 12 
     name upperback
     direction 0.0127391 0.991676 0.128127   
     length 1.63741   
     axis 0 0 0   XYZ
    dof rx ry rz
    limits (-20.0 45.0)
           (-30.0 30.0)
           (-30.0 30.0)
  end
  begin
     id 13 
     name thorax
     direction 0.0167583 0.996049 0.0872067   
     length 1.65931   
     axis 0 0 0   XYZ
    dof rx ry rz
    limits (-20.0 45.0)
           (-30.0 30.0)
           (-30.0 30.0)
  end
  begin
     id 14 
     name lowerneck
     direction -0.0317829 0.998312 0.0486079   
     length 1.79021   
     axis 0 0 0   XYZ
    dof rx ry rz
    limits (-20.0 45.0)
           (-30.0 30.0)
           (-30.0 30.0)
  end
  begin
     id 15 
     name upperneck
     direction 0.0896851 0.972452 -0.215159   
     length 1.78797   
     axis 0 0 0   XYZ
    dof rx ry rz
    limits (-20.0 45.0)
           (-30.0 30.0)
           (-30.0 30.0)
  end
  begin
     id 16
     name head
     direction 0.0310949 0.996503 -0.0775582  
     length 1.81549  
     axis 0 0 0   XYZ
    dof rx ry rz
    limits (-20.0 45.0)
           (-30.0 30.0)
           (-30.0 30.0)
  end
  begin
     id 17 
     name lclavicle
     direction 0.853638 0.502051 -0.138733  
     length 3.31627  
     axis 0 0 0   XYZ
    dof ry rz
    limits (-20.0 10.0)
           (0.0 20.0)
  end
  begin
     id 18 
     name lhumerus
     direction 1 -4.48962e-011 -1.41788e-018   
     length 5.54893   
     axis 180 -30 -90   XYZ
    dof rx ry rz
    limits (-60.0 90.0)
           (-90.0 90.0)
           (-90.0 90.0)
  end
  begin
     id 19
     name lradius
     direction 1 -4.48962e-011 -4.95754e-027   
     length 3.02898   
     axis 180 -30 -90   XYZ
    dof rx
    limits (-10.0 170.0)
  end
  begin
     id 20
     name lwrist
     direction 1 -4.48952e-011 -1.03764e-026   
     length 1.51449   
     axis 9.09556e-015 90 90   XYZ
    dof ry
    limits (-180.0 0.0)
 end
  begin
     id 21 
     name lhand
     direction 1 -4.4902e-011 -2.07528e-026   
     length 0.640951   
     axis 1.3242e-014 90 90   XYZ
    dof rx rz
    limits (-90.0 90.0)
           (-45.0 45.0)
  end
  begin
     id 22 
     name lfingers
     direction 1 -4.49014e-011 -4.15056e-026   
     length 0.516751   
     axis 2.64841e-014 90 90   XYZ
    dof rx
    limits (0.0 90.0)
  end
  begin
     id 23
     name lthumb
     direction 0.707107 -6.35008e-011 0.707107   
     length 0.741954   
     axis -90 45 2.85299e-015   XYZ
    dof rx rz
    limits (-45.0 45.0)
           (-45.0 45.0)
  end
  begin
     id 24 
     name rclavicle
     direction -0.888531 0.455324 -0.0565039   
     length 3.20126  
     axis 0 0 0   XYZ 
    dof ry rz
    limits (-10.0 20.0)
           (-20.0 0.0)
  end
  begin
     id 25 
     name rhumerus
     direction -1 -4.48946e-011 -8.98298e-028  
     length 5.3519   
     axis 180 30 90   XYZ
    dof rx ry rz
    limits (-90.0 60.0)
           (-90.0 90.0)
           (-90.0 90.0)
  end
  begin
     id 26 
     name rradius
     direction -1 -4.4899e-011 -3.18779e-027   
     length 3.02531   
     axis 180 30 90   XYZ
    dof rx
    limits (-10.0 170.0)
  end
  begin
     id 27 
     name rwrist
     direction -1 -4.4897e-011 -1.03764e-026   
     length 1.51266   
     axis 9.09556e-015 -90 -90   XYZ
    dof ry
    limits (-180.0 0.0)
  end
  begin
     id 28
     name rhand
     direction -1 -4.48941e-011 -2.07528e-026   
     length 0.78389   
     axis 1.3242e-014 -90 -90   XYZ
    dof rx rz
    limits (-90.0 90.0)
           (-45.0 45.0)
  end
  begin
     id 29
     name rfingers
     direction -1 -4.49012e-011 -4.15056e-026   
     length 0.631992   
     axis 2.64841e-014 -90 -90   XYZ
    dof rx
    limits (0.0 90.0)
  end
  begin
     id 30
     name rthumb
     direction -0.707107 -6.3496e-011 0.707107   
     length 0.907418   
     axis -90 -45 -2.85299e-015   XYZ
    dof rx rz
    limits (-45.0 45.0)
           (-45.0 45.0)
  end
:hierarchy
  begin
    root lhipjoint rhipjoint lowerback
    lhipjoint lfemur
    lfemur ltibia
    ltibia lfoot
    lfoot ltoes
    rhipjoint rfemur
    rfemur rtibia
    rtibia rfoot
    rfoot rtoes
    lowerback upperback
    upperback thorax
    thorax lowerneck lclavicle rclavicle
    lowerneck upperneck
    upperneck head
    lclavicle lhumerus
    lhumerus lradius
    lradius lwrist
    lwrist lhand lthumb
    lhand lfingers
    rclavicle rhumerus
    rhumerus rradius
    rradius rwrist
    rwrist rhand rthumb
    rhand rfingers
  end

#!OML:ASF E:\Style3\Style3.ASF
:FULLY-SPECIFIED
:DEGREES
702
root -1.69262 17.431 1.83339 -292.827 81.541 -333.816
lowerback 24.1408 0.397861 4.42872
upperback -2.20161 2.41755 3.09369
thorax -16.2189 0.898775 0.158384
lowerneck -1.63578 14.9588 4.58179
upperneck -27.4922 18.8777 -19.7163
head -5.55937 11.2354 -7.58199
rclavicle -2.38542e-014 -2.22639e-014
rhumerus -8.20245 33.6785 -69.1297
rradius 147.651
rwrist -49.3812
rhand 32.7136 24.2983
rfingers 7.12502
rthumb 56.1286 7.00872
lclavicle -2.38542e-014 -2.22639e-014
lhumerus -6.82301 -34.1475 78.7124
lradius 146.681
lwrist 52.1585
lhand 26.5775 15.7165
lfingers 7.12502
lthumb 50.6054 36.6154
rfemur -66.3871 8.70134 6.38953
rtibia 35.633
rfoot -8.5068 -15.3258
rtoes -11.9193
lfemur -49.5391 -10.7283 -3.39275
ltibia 13.8661
lfoot -8.44021 27.7186
ltoes -12.5435
703
root -1.70405 17.4355 1.84302 -291.671 81.7469 -332.461
lowerback 24.5655 0.433861 4.4202
upperback -2.10664 2.48987 3.09584
thorax -16.3518 0.929674 0.132813
lowerneck -1.45282 15.1348 4.58713
upperneck -27.7428 19.1338 -19.7875
head -5.63138 11.3895 -7.63685
rclavicle 2.38542e-014 8.42847e-014
rhumerus -7.60045 33.436 -66.591
rradius 147.871
rwrist -49.5811
rhand 32.2987 23.9516
rfingers 7.12502
rthumb 55.7609 6.37801
lclavicle 2.38542e-014 8.42847e-014
lhumerus -6.50199 -33.8718 76.4233
lradius 146.776
lwrist 51.9548
lhand 25.5738 15.3981
lfingers 7.12502
lthumb 49.6875 36.7834
rfemur -66.1642 8.58179 6.53813
rtibia 35.677
rfoot -8.52217 -15.4065
rtoes -11.9212
lfemur -49.466 -10.6767 -3.54266
ltibia 13.9389
lfoot -7.1876 27.4144
ltoes -15.7534
704
root -1.71079 17.4325 1.84626 -290.498 81.9843 -331.267
lowerback 24.6981 0.457588 4.54924
upperback -2.05493 2.57044 3.1065
thorax -16.3599 0.954781 0.038739
lowerneck -1.41079 15.2009 4.43533
upperneck -27.824 19.2564 -19.6763
head -5.68308 11.4618 -7.59545
rclavicle 2.06736e-014 9.54166e-015
rhumerus -7.05882 33.5312 -64.0133
rradius 147.95
rwrist -49.421
rhand 31.2345 23.9746
rfingers 7.12502
rthumb 54.8133 5.70172
lclavicle 2.06736e-014 9.54166e-015
lhumerus -6.33673 -33.6621 74.2633
lradius 146.857
lwrist 51.9345
lhand 25.1538 14.9818
lfingers 7.12502
lthumb 49.3023 36.5633
rfemur -66.1544 8.44146 6.62648
rtibia 35.7526
rfoot -8.54727 -15.5268
rtoes -11.7733
lfemur -49.6561 -10.8986 -3.33201
ltibia 14.047
lfoot -6.76846 27.4379
ltoes -16.7858
705
root -1.71649 17.4225 1.84518 -289.937 82.2325 -330.859
lowerback 24.6185 0.520014 4.72455
upperback -2.05561 2.70514 3.12747
thorax -16.3042 1.00129 -0.0868134
lowerneck -1.40391 15.1767 4.35313
upperneck -27.8218 19.2456 -19.5887
head -5.70601 11.4592 -7.56253
rclavicle 1.43125e-014 9.54166e-015
rhumerus -6.56802 33.7723 -61.4545
rradius 148.015
rwrist -49.2996
rhand 29.9623 23.825
rfingers 7.12502
rthumb 53.6731 4.76826
lclavicle 1.43125e-014 9.54166e-015
lhumerus -6.3408 -33.6333 72.2486
lradius 146.908
lwrist 51.8422
lhand 25.2856 14.6756
lfingers 7.12502
lthumb 49.4233 36.1959
rfemur -66.3606 8.26036 6.82462
rtibia 35.8559
rfoot -8.56058 -15.5052
rtoes -11.8824
lfemur -49.9769 -10.9517 -3.11313
ltibia 14.1543
lfoot -6.33993 27.5074
ltoes -18.0409
706
root -1.72409 17.4158 1.84606 -288.829 82.4489 -329.749
lowerback 24.7386 0.554929 4.84147
upperback -1.99034 2.79315 3.12657
thorax -16.2869 1.03065 -0.190469
lowerneck -1.6041 15.1159 4.32558
upperneck -27.6336 19.1823 -19.5197
head -5.63185 11.4167 -7.50239
rclavicle -6.36111e-015 1.43125e-014
rhumerus -5.8802 33.872 -58.7522
rradius 148.073
rwrist -49.3832
rhand 28.8835 23.3791
rfingers 7.12502
rthumb 52.7004 3.6988
lclavicle -6.36111e-015 1.43125e-014
lhumerus -6.34864 -33.6507 70.2783
lradius 147.088
lwrist 51.8333
lhand 26.0024 15.1968
lfingers 7.12502
lthumb 50.0799 36.3775
rfemur -66.4003 8.05163 7.00806
rtibia 35.9856
rfoot -8.60225 -15.4581
rtoes -11.9728
lfemur -50.1417 -10.9926 -3.08041
ltibia 14.2654
lfoot -5.86289 27.3836
ltoes -19.3036
707
root -1.73324 17.4117 1.84726 -286.979 82.6646 -327.844
lowerback 24.8321 0.535198 4.93708
upperback -1.84062 2.80151 3.15553
thorax -16.1552 1.03326 -0.217876
lowerneck -1.76729 15.0232 4.28328
upperneck -27.511 19.0515 -19.5596
head -5.57988 11.3577 -7.48556
rclavicle 1.59028e-015 1.11319e-014
rhumerus -4.96291 33.8303 -55.8473
rradius 148.136
rwrist -49.7398
rhand 28.0719 23.0661
rfingers 7.12502
rthumb 51.9654 2.93991
lclavicle 1.59028e-015 1.11319e-014
lhumerus -6.21899 -33.5488 68.3263
lradius 147.234
lwrist 52.1325
lhand 26.5109 15.7032
lfingers 7.12502
lthumb 50.5446 36.6352
rfemur -66.3759 7.83208 7.1033
rtibia 36.1169
rfoot -8.61964 -15.5326
rtoes -12.6092
lfemur -50.2633 -11.2054 -2.99065
ltibia 14.3338
lfoot -5.91829 27.3174
ltoes -19.1708
708
root -1.74611 17.405 1.85142 -284.735 82.9197 -325.643
lowerback 24.9146 0.490378 5.01738
upperback -1.77702 2.77864 3.19734
thorax -16.1257 1.02114 -0.208451
lowerneck -1.78432 14.8813 4.31508
upperneck -27.4494 18.8361 -19.6547
head -5.56532 11.2589 -7.51842
rclavicle 2.38542e-014 -1.90833e-014
rhumerus -4.2029 34.0295 -53.1545
rradius 148.186
rwrist -49.8648
rhand 27.4935 22.8614
rfingers 7.12502
rthumb 51.44 2.42887
lclavicle 2.38542e-014 -1.90833e-014
lhumerus -6.26089 -33.4829 66.4506
lradius 147.273
lwrist 52.9043
lhand 27.0885 15.9399
lfingers 7.12502
lthumb 51.0714 36.5813
rfemur -66.4719 7.64111 7.15065
rtibia 36.2397
rfoot -8.66094 -15.6991
rtoes -13.0865
lfemur -50.4189 -11.233 -2.96409
ltibia 14.2587
lfoot -5.8428 27.0106
ltoes -18.9875
